<?xml version="1.0" standalone="no"?>
<!DOCTYPE svg PUBLIC "-//W3C//DTD SVG 20010904//EN"
 "http://www.w3.org/TR/2001/REC-SVG-20010904/DTD/svg10.dtd">
<svg version="1.0" xmlns="http://www.w3.org/2000/svg"
 width="1592.000000pt" height="806.000000pt" viewBox="0 0 1592.000000 806.000000"
 preserveAspectRatio="xMidYMid meet">
<metadata>
Created by potrace 1.16, written by Peter Selinger 2001-2019
</metadata>
<g transform="translate(0.000000,806.000000) scale(0.100000,-0.100000)"
fill="#000000" stroke="none">
<path d="M3281 7034 c-1 -6 6 -33 14 -60 19 -64 19 -71 -6 -77 -16 -4 -19 -10
-14 -28 7 -21 6 -22 -44 -15 -28 4 -51 4 -51 1 0 -3 7 -16 15 -29 22 -33 0
-51 -41 -36 -15 6 -39 9 -51 5 -13 -3 -32 -1 -43 5 -11 6 -20 8 -20 5 0 -11
41 -45 55 -45 9 0 38 -11 66 -25 29 -15 63 -25 83 -23 54 3 80 -27 102 -117
l11 -50 8 84 c6 66 12 87 28 100 54 43 57 50 57 110 0 66 2 64 -81 76 -43 5
-48 9 -53 38 -8 37 -34 98 -35 81z"/>
<path d="M2876 6992 c-4 -18 -12 -30 -17 -26 -13 7 -11 -15 5 -68 l13 -46 -44
-6 c-24 -3 -50 -12 -58 -20 -8 -7 -56 -24 -107 -36 -51 -13 -108 -29 -126 -37
-18 -7 -37 -11 -42 -8 -5 3 -21 33 -36 66 -15 32 -29 58 -31 55 -7 -6 60 -156
69 -156 5 0 62 20 127 44 66 25 135 48 155 51 20 4 39 11 42 16 10 16 43 9 54
-10 23 -45 15 -50 -235 -128 l-109 -34 -48 52 c-26 29 -48 55 -48 59 0 3 -11
21 -25 40 -14 19 -25 43 -25 53 0 18 -2 18 -23 4 -21 -14 -26 -13 -62 15 -34
25 -46 29 -85 25 -72 -8 -804 -115 -925 -136 -168 -29 -86 -24 180 9 216 28
347 46 659 95 124 19 152 19 160 0 10 -27 -42 -41 -264 -75 -69 -10 -240 -41
-380 -69 -336 -66 -752 -137 -920 -156 -222 -26 -721 -21 -704 7 9 15 88 48
137 57 37 8 33 9 -40 10 -76 1 -83 -1 -95 -21 -17 -33 -14 -115 8 -178 22 -64
14 -61 215 -86 120 -15 156 -15 283 -4 106 8 150 9 160 1 7 -6 15 -9 17 -6 3
2 47 9 99 15 52 6 194 29 315 50 121 22 312 55 425 75 113 19 324 58 470 87
253 50 266 53 301 85 26 24 46 33 71 33 34 0 34 -1 69 -91 32 -87 36 -92 81
-115 26 -13 63 -24 83 -24 34 0 35 1 35 38 0 59 29 96 106 132 l68 32 35 -20
c34 -19 59 -55 75 -109 7 -22 5 -23 -42 -23 -56 0 -113 -18 -166 -52 -43 -28
-44 -36 -16 -193 l21 -115 -48 -142 -47 -143 -140 -137 c-76 -76 -143 -138
-149 -138 -5 0 -11 9 -14 19 -5 18 -6 18 -33 3 l-27 -16 15 -45 15 -44 24 27
c28 32 31 12 3 -24 -16 -21 -18 -36 -13 -106 l6 -81 -64 -36 c-83 -45 -200
-83 -319 -102 -164 -26 -175 -24 -281 48 -117 79 -195 149 -203 185 -4 15 -9
36 -12 47 -3 11 7 -4 21 -32 22 -44 43 -65 128 -127 117 -85 185 -123 196
-110 5 5 17 34 26 64 10 30 20 60 22 66 3 7 -17 8 -67 1 -83 -10 -125 -4 -160
23 -35 26 -21 33 23 11 36 -18 59 -19 174 -5 39 5 42 8 57 51 9 26 14 48 12
50 -2 2 -68 -12 -146 -32 -79 -20 -154 -35 -168 -33 -29 3 -59 40 -67 83 l-6
30 15 -32 c8 -17 26 -39 41 -49 25 -17 31 -16 208 31 352 92 567 174 567 215
0 22 -12 25 -38 11 -9 -4 -31 -11 -49 -14 -31 -6 -33 -4 -53 40 -26 58 -26 58
9 73 34 13 76 56 85 85 5 17 -7 27 -81 65 -76 39 -91 51 -116 95 -42 72 -124
163 -166 184 -20 10 -70 28 -111 41 -191 57 -380 -34 -480 -231 -59 -116 -73
-211 -45 -305 21 -70 108 -243 123 -243 7 -1 12 -14 12 -33 0 -27 9 -41 47
-75 57 -49 54 -67 -3 -20 -21 17 -33 24 -25 14 21 -27 107 -87 124 -87 8 0 35
-16 59 -36 23 -20 57 -43 73 -50 26 -11 27 -13 8 -14 -12 0 -43 18 -69 41 -35
30 -52 39 -68 34 -12 -3 -38 -9 -58 -12 -22 -3 -38 -11 -38 -19 0 -8 13 -42
30 -76 16 -34 30 -76 30 -95 0 -32 14 -53 57 -83 19 -13 23 -30 32 -137 5 -67
17 -135 25 -150 8 -16 40 -53 73 -83 32 -29 117 -110 188 -179 174 -167 230
-219 425 -391 253 -224 286 -258 299 -310 7 -25 23 -85 37 -134 21 -76 24
-107 22 -205 -2 -120 4 -161 26 -161 14 0 210 137 291 203 120 99 297 263 379
352 120 130 238 275 233 289 -2 6 -20 19 -40 29 -23 12 -37 26 -37 37 0 11
-33 70 -73 132 -41 62 -115 181 -165 263 -85 141 -99 158 -219 271 -70 66
-169 157 -220 202 l-92 82 113 228 c62 125 139 269 170 321 49 80 62 112 88
220 93 386 107 433 127 455 29 31 26 47 -15 73 -28 18 -39 21 -62 12 -32 -13
-98 -4 -129 17 -16 10 -23 24 -23 44 0 25 9 37 45 62 54 38 57 53 10 44 -44
-9 -46 8 -5 29 17 9 30 20 30 24 0 13 -55 45 -112 66 -44 16 -48 21 -62 69
-26 95 -28 113 -12 145 23 44 20 59 -11 63 -24 3 -29 8 -33 43 l-6 40 -8 -33z"/>
<path d="M5868 6533 c8 -69 15 -291 19 -615 5 -475 2 -598 -23 -860 l-7 -68
258 0 258 0 -6 48 c-25 193 -31 349 -31 762 0 411 7 579 31 788 l6 52 -259 0
-260 0 14 -107z"/>
<path d="M6664 6623 c2 -10 10 -151 17 -313 17 -418 6 -951 -27 -1257 l-6 -63
152 0 153 0 -6 58 c-4 31 -11 95 -17 142 -23 197 -38 682 -24 784 l7 46 75
-77 c41 -43 127 -132 191 -198 170 -175 398 -421 601 -648 l95 -106 118 -1
119 0 -7 498 c-7 496 -1 717 29 1029 l12 123 -159 0 -159 0 6 -32 c20 -108 56
-654 56 -837 l0 -76 -203 205 c-263 267 -641 676 -670 726 -6 11 -44 14 -183
14 -162 0 -175 -1 -170 -17z"/>
<path d="M8424 6613 c3 -16 11 -86 18 -158 16 -160 17 -1241 2 -1357 l-10 -77
65 -16 c109 -26 440 -41 594 -27 491 45 811 283 919 684 29 112 33 377 5 478
-77 287 -303 456 -653 490 -54 5 -289 10 -522 10 l-424 0 6 -27z m857 -215
c195 -97 288 -296 276 -593 -6 -152 -32 -264 -84 -369 -39 -77 -126 -175 -188
-212 -58 -33 -168 -57 -241 -51 -68 5 -97 19 -115 56 -20 44 -28 238 -28 734
l-1 479 153 -4 153 -3 75 -37z"/>
<path d="M10213 6593 c24 -189 31 -362 31 -793 0 -433 -6 -571 -30 -762 l-7
-48 258 0 258 0 -7 83 c-22 257 -26 349 -25 727 0 375 3 487 25 758 l7 82
-258 0 -258 0 6 -47z"/>
<path d="M11540 6627 c0 -64 -368 -920 -619 -1441 -50 -104 -91 -191 -91 -193
0 -2 73 -2 163 -1 l162 3 23 75 c13 41 50 145 82 230 l58 155 259 3 259 2 36
-87 c20 -49 64 -153 96 -233 l60 -145 271 -3 c194 -2 271 1 271 9 0 6 -56 126
-124 267 -119 247 -153 322 -265 588 -60 144 -201 501 -262 667 l-44 117 -167
0 c-131 0 -168 -3 -168 -13z m124 -711 c53 -132 94 -241 92 -243 -2 -2 -86 -2
-188 -1 l-185 3 32 85 c17 47 58 156 90 243 32 87 59 156 60 155 2 -2 46 -111
99 -242z"/>
<path d="M12697 6468 c20 -430 6 -1273 -24 -1445 l-5 -33 157 0 157 0 -6 28
c-32 161 -54 581 -47 922 l2 85 131 -135 c256 -263 361 -374 518 -546 30 -33
115 -127 189 -208 l134 -147 115 3 115 3 -4 355 c-6 510 -1 798 16 1020 8 107
18 212 21 233 l6 37 -159 0 -159 0 17 -157 c25 -229 52 -783 38 -783 -21 0
-571 581 -793 838 l-89 102 -169 0 -169 0 8 -172z"/>
<path d="M2176 5554 c-38 -13 -71 -25 -73 -28 -7 -7 19 -96 29 -96 5 0 42 14
83 31 l73 30 -12 41 c-6 23 -16 43 -21 44 -6 1 -41 -8 -79 -22z"/>
<path d="M1996 5496 c-64 -19 -71 -25 -88 -61 -31 -71 -28 -75 45 -59 115 27
138 35 144 50 6 18 -14 94 -25 93 -4 0 -38 -11 -76 -23z"/>
<path d="M2207 5431 c-38 -16 -68 -31 -68 -34 0 -4 3 -34 7 -67 6 -54 9 -60
26 -54 37 11 128 55 133 64 9 15 -7 120 -19 119 -6 -1 -42 -13 -79 -28z"/>
<path d="M1980 5360 l-105 -28 -22 -58 c-12 -33 -22 -62 -22 -66 -2 -20 193 8
265 38 l36 15 -7 57 c-4 31 -9 60 -12 65 -6 10 -14 9 -133 -23z"/>
<path d="M5864 4479 c22 -247 25 -360 26 -742 0 -382 -9 -617 -29 -769 l-8
-58 259 0 c142 0 258 3 258 8 0 4 -8 68 -16 142 -11 100 -17 287 -21 719 l-5
584 74 -5 c102 -7 149 -34 179 -102 19 -46 21 -63 17 -181 -5 -141 -19 -187
-77 -248 -29 -32 -91 -67 -118 -67 -41 0 -45 -14 -22 -63 21 -42 26 -47 67
-53 58 -9 192 2 262 21 234 63 360 230 360 479 0 116 -15 176 -60 241 -53 77
-129 123 -250 150 -62 14 -149 18 -489 22 l-414 5 7 -83z"/>
<path d="M7303 4513 c44 -340 44 -1255 1 -1560 l-6 -43 259 0 260 0 -9 60 c-7
55 -28 408 -28 488 0 17 4 32 9 32 33 0 158 -193 298 -457 l65 -123 289 0 289
0 -84 128 c-349 536 -368 562 -425 591 l-35 18 60 22 c128 48 226 127 273 219
31 60 51 156 51 242 0 133 -34 216 -123 297 -57 52 -108 79 -205 105 -71 20
-109 21 -511 26 l-434 4 6 -49z m608 -184 c113 -24 175 -125 173 -279 -3 -207
-91 -336 -239 -347 l-65 -6 0 322 0 321 40 0 c21 0 62 -5 91 -11z"/>
<path d="M8874 4510 c23 -187 30 -360 30 -785 0 -426 -7 -586 -31 -769 l-6
-48 119 8 c127 10 649 8 850 -1 l122 -6 7 126 c4 69 6 128 3 130 -2 2 -64 -5
-138 -17 -137 -20 -391 -30 -441 -16 -23 7 -27 15 -33 60 -3 29 -6 146 -6 261
l0 207 113 -1 c61 0 165 -6 230 -12 l117 -12 0 119 0 119 -67 -7 c-38 -3 -141
-9 -230 -13 l-163 -6 0 257 0 256 53 0 c117 0 372 -33 433 -57 12 -4 14 15 14
123 l0 129 -491 0 -491 0 6 -45z"/>
<path d="M10270 4483 c0 -284 -85 -1114 -145 -1421 -14 -70 -25 -133 -25 -139
0 -10 36 -13 148 -13 l149 0 6 298 c6 287 22 581 36 651 6 33 9 29 70 -100 64
-134 163 -354 304 -674 l75 -170 155 -3 155 -2 47 122 c119 305 373 864 386
851 18 -19 59 -587 59 -810 l0 -163 258 0 259 0 -18 108 c-74 429 -136 984
-157 1397 l-7 140 -190 0 -189 0 -24 -65 c-53 -145 -148 -383 -204 -510 -84
-190 -92 -207 -175 -380 l-74 -154 -21 34 c-46 75 -212 431 -348 748 l-143
332 -193 0 -194 0 0 -77z"/>
<path d="M12414 4533 c23 -116 31 -321 31 -808 0 -487 -9 -718 -31 -797 -5
-17 12 -18 256 -18 l262 0 -6 33 c-43 245 -43 1294 0 1580 l6 37 -262 0 -262
0 6 -27z"/>
<path d="M13215 4510 c42 -324 45 -1197 5 -1514 -5 -44 -8 -81 -5 -84 2 -2 80
1 172 8 125 9 263 9 538 2 204 -6 371 -9 371 -9 3 3 21 252 19 255 -1 1 -65
-7 -141 -19 -140 -22 -444 -33 -460 -16 -15 15 -23 116 -23 321 l-1 209 163
-7 c89 -3 195 -9 235 -12 l72 -7 0 118 0 118 -67 -7 c-38 -3 -143 -9 -235 -13
l-168 -6 0 257 0 256 53 0 c98 0 282 -20 365 -40 46 -11 86 -20 88 -20 3 0 3
56 2 125 l-3 125 -493 2 -493 3 6 -45z"/>
<path d="M14493 4508 c25 -212 30 -345 30 -778 0 -430 -6 -591 -29 -772 l-7
-48 260 0 260 0 -8 58 c-13 89 -32 512 -24 520 22 22 154 -178 310 -470 l57
-108 290 0 289 0 -19 28 c-10 15 -97 146 -192 292 -205 314 -251 376 -296 397
-33 16 -37 33 -7 33 33 0 164 72 215 119 93 85 138 199 138 353 0 113 -30 196
-96 267 -63 68 -125 104 -231 133 -73 20 -108 21 -512 26 l-434 4 6 -54z m607
-179 c130 -29 196 -162 170 -343 -25 -184 -118 -286 -259 -286 l-41 0 0 320 0
320 43 0 c23 0 62 -5 87 -11z"/>
<path d="M3677 3830 c-97 -98 -140 -133 -152 -122 -5 4 -5 2 -2 -4 6 -11 -126
-140 -136 -132 -2 2 -19 -14 -37 -34 -19 -21 -41 -38 -51 -38 -9 0 -19 -7 -22
-15 -4 -8 -25 -27 -48 -42 -23 -15 -52 -35 -64 -43 -66 -46 -170 -113 -183
-118 -11 -4 -13 -1 -7 9 5 8 5 11 -1 6 -5 -5 -9 -14 -9 -20 0 -7 -13 -19 -30
-27 -16 -9 -42 -24 -57 -34 -15 -10 -33 -14 -40 -10 -7 4 -10 3 -5 -1 4 -5
-13 -18 -38 -30 l-45 -22 40 -56 c39 -54 80 -172 100 -287 4 -25 17 -88 28
-140 32 -156 48 -455 33 -639 -12 -149 -14 -157 -49 -218 -64 -111 -94 -144
-213 -237 l-117 -91 -68 -140 c-84 -170 -133 -254 -190 -320 -24 -28 -76 -100
-117 -160 -59 -89 -89 -122 -153 -172 -172 -135 -166 -128 -182 -229 -9 -49
-15 -111 -15 -139 0 -74 20 -211 35 -235 17 -27 117 -77 171 -85 44 -6 368 19
387 30 5 3 10 31 10 61 l0 54 144 193 c137 184 298 367 323 367 10 0 43 -38
143 -167 43 -57 95 -89 158 -99 54 -8 60 5 78 164 8 70 21 150 29 178 15 51
16 52 78 74 66 24 61 19 362 309 75 73 320 299 529 491 27 25 81 74 119 110
91 86 102 92 239 146 l117 45 104 127 c200 245 231 295 217 358 -11 48 -65
100 -113 109 -44 9 -101 -7 -161 -45 -68 -44 -51 -48 20 -5 47 28 69 35 109
35 28 0 55 -4 61 -8 20 -14 64 -79 64 -95 0 -33 -128 -154 -329 -310 -60 -47
-177 -107 -207 -107 -28 0 -27 1 31 61 33 33 89 78 125 99 71 42 104 73 112
107 16 65 -55 250 -199 523 -22 41 -75 143 -118 225 -43 83 -92 170 -108 195
-28 42 -218 242 -365 383 -73 70 -87 93 -96 159 -6 39 -13 51 -39 67 -18 11
-45 33 -61 50 -17 17 -35 31 -40 31 -6 -1 -51 -41 -99 -90z m-447 -3043 c0 -2
4 -28 10 -58 5 -30 6 -79 2 -109 -6 -47 -10 -55 -30 -58 -16 -3 -33 7 -58 33
-19 20 -34 41 -34 46 0 6 -11 27 -25 47 -33 48 -32 70 3 77 15 3 41 10 57 14
31 9 75 14 75 8z m-1027 -418 c50 -16 97 -35 103 -40 14 -11 54 -136 54 -167
0 -40 -36 -52 -152 -52 -82 0 -122 5 -165 20 -90 31 -95 40 -91 138 3 77 5 86
31 108 40 34 105 32 220 -7z"/>
<path d="M10875 2488 c-363 -40 -654 -230 -786 -511 -55 -118 -72 -206 -73
-372 -1 -178 11 -234 81 -375 39 -80 61 -109 138 -186 79 -80 104 -98 195
-142 191 -93 357 -120 622 -102 212 14 317 30 474 76 19 5 20 10 13 47 -4 23
-8 110 -8 192 0 135 4 200 25 413 l7 62 -245 0 c-135 0 -247 -2 -250 -5 -2 -3
-1 -28 3 -57 4 -29 13 -151 20 -270 10 -168 10 -224 1 -244 l-12 -26 -118 4
c-103 3 -124 6 -175 30 -73 34 -160 122 -204 203 -129 243 -116 672 26 878 47
70 110 124 181 160 63 31 68 32 195 32 125 0 132 -1 197 -32 63 -30 121 -80
176 -151 17 -22 32 -32 45 -30 18 3 26 25 59 153 20 83 38 155 38 161 0 11
-92 56 -150 73 -90 27 -325 36 -475 19z"/>
<path d="M5861 2413 c20 -153 29 -388 29 -770 -1 -381 -5 -515 -25 -733 l-7
-75 541 0 541 0 5 30 c2 17 7 73 10 126 l7 95 -164 -23 c-121 -17 -198 -23
-300 -21 -75 2 -139 6 -143 10 -17 17 -27 322 -21 678 5 346 12 505 32 683 l6
57 -259 0 -260 0 8 -57z"/>
<path d="M7134 2430 c43 -281 43 -1295 0 -1570 l-6 -36 109 9 c59 5 304 7 545
4 l436 -5 6 97 c4 53 9 108 11 124 6 34 8 34 -188 6 -170 -23 -396 -24 -419
-1 -10 10 -14 77 -17 267 l-3 255 64 0 c71 0 300 -17 361 -26 l37 -6 0 122 0
122 -52 -6 c-108 -13 -265 -25 -335 -26 l-73 0 0 256 0 257 153 -6 c94 -4 188
-14 247 -26 52 -12 98 -21 103 -21 4 0 7 56 7 124 l0 124 -495 -1 -496 -2 5
-35z"/>
<path d="M9017 2463 c-3 -5 -28 -71 -57 -148 -117 -314 -334 -809 -579 -1319
-45 -93 -81 -170 -81 -173 0 -2 73 -2 162 -1 l161 3 34 100 c18 55 56 162 84
238 l52 137 255 -2 256 -3 34 -80 c19 -44 62 -150 97 -235 l63 -155 276 -3
276 -2 -17 37 c-10 21 -51 106 -92 188 -165 338 -376 836 -542 1283 l-53 142
-162 0 c-90 0 -165 -3 -167 -7z m119 -719 c47 -120 88 -225 91 -231 4 -10 -37
-13 -185 -13 l-191 0 23 63 c13 34 54 145 91 246 46 124 71 178 76 169 5 -8
47 -114 95 -234z"/>
<path d="M11821 2408 c21 -178 32 -423 33 -788 2 -379 4 -409 23 -467 11 -34
32 -82 46 -106 31 -52 124 -140 176 -166 113 -58 290 -86 488 -78 300 12 463
97 553 289 58 125 68 199 79 618 9 314 29 638 46 733 l5 27 -158 0 -158 0 18
-177 c44 -447 43 -922 -1 -1052 -39 -112 -102 -184 -193 -218 -53 -19 -216
-22 -274 -5 -68 20 -129 74 -163 144 -49 101 -54 165 -48 623 6 367 13 505 33
643 l6 42 -259 0 -259 0 7 -62z"/>
<path d="M13544 2430 c24 -158 31 -328 31 -780 0 -451 -8 -658 -31 -786 l-6
-31 404 4 c222 3 467 1 545 -4 l141 -8 7 105 c3 58 8 115 11 128 6 28 -1 28
-192 1 -165 -23 -393 -24 -416 -1 -9 9 -13 80 -16 267 l-4 255 68 0 c71 0 273
-15 357 -26 l47 -6 0 121 c0 90 -3 121 -12 121 -7 0 -80 -7 -163 -15 -82 -8
-183 -15 -222 -15 l-73 0 0 257 0 256 153 -6 c83 -4 184 -14 222 -22 39 -8 85
-18 103 -21 l32 -7 0 126 0 125 -495 -1 -496 -2 5 -35z"/>
</g>
</svg>
